<?xml version="1.0" standalone="no"?>
<!DOCTYPE svg PUBLIC "-//W3C//DTD SVG 20010904//EN"
 "http://www.w3.org/TR/2001/REC-SVG-20010904/DTD/svg10.dtd">
<svg version="1.0" xmlns="http://www.w3.org/2000/svg"
 width="425.000000pt" height="372.000000pt" viewBox="0 0 425.000000 372.000000"
 preserveAspectRatio="xMidYMid meet">

<g transform="translate(0.000000,372.000000) scale(0.100000,-0.100000)"
fill="#000000" stroke="none">
<path d="M1411 3524 c0 -11 3 -14 6 -6 3 7 2 16 -1 19 -3 4 -6 -2 -5 -13z"/>
<path d="M1710 3483 c-52 -54 -127 -91 -199 -100 -28 -3 -51 -10 -51 -14 0
-21 118 9 185 46 51 28 115 87 115 105 0 14 0 14 -50 -37z"/>
<path d="M1396 3476 c-3 -13 -24 -47 -47 -76 -26 -32 -33 -48 -21 -41 21 11
92 112 92 130 0 21 -18 11 -24 -13z"/>
<path d="M2470 3476 c0 -2 8 -10 18 -17 15 -13 16 -12 3 4 -13 16 -21 21 -21
13z"/>
<path d="M1162 3379 c-2 -41 -25 -100 -54 -141 -11 -16 -15 -28 -10 -28 27 0
76 122 69 173 -4 32 -4 32 -5 -4z"/>
<path d="M2620 3390 c0 -6 7 -10 15 -10 8 0 15 2 15 4 0 2 -7 6 -15 10 -8 3
-15 1 -15 -4z"/>
<path d="M2738 3383 c-21 -2 -38 -9 -38 -15 0 -12 59 -3 74 12 6 6 8 9 6 8 -3
-1 -22 -3 -42 -5z"/>
<path d="M2668 3373 c7 -3 16 -2 19 1 4 3 -2 6 -13 5 -11 0 -14 -3 -6 -6z"/>
<path d="M2957 3275 c-55 -48 -138 -67 -222 -52 -34 6 -37 6 -20 -5 33 -20
154 -14 200 9 36 19 91 70 83 78 -2 2 -20 -12 -41 -30z"/>
<path d="M1930 3265 c-86 -14 -136 -26 -164 -42 -8 -4 148 -8 351 -8 l365 0
-68 21 c-135 43 -323 54 -484 29z"/>
<path d="M1489 3238 c-39 -20 -101 -25 -160 -14 -29 6 -31 5 -15 -5 30 -18
145 -16 184 4 17 10 32 22 32 27 0 6 -1 9 -2 9 -2 -1 -19 -10 -39 -21z"/>
<path d="M3211 3198 c-2 -69 -67 -108 -176 -108 -37 0 -75 5 -86 10 -10 6 -19
8 -19 5 0 -17 73 -34 130 -30 84 6 147 42 156 89 3 19 4 42 1 53 -3 10 -5 1
-6 -19z"/>
<path d="M941 3165 c-1 -22 -10 -60 -21 -84 -25 -55 -26 -75 0 -36 19 29 37
123 27 147 -3 7 -6 -5 -6 -27z"/>
<path d="M1945 3139 c-260 -38 -485 -154 -675 -348 -199 -204 -303 -427 -331
-714 -19 -186 17 -407 92 -576 34 -76 38 -78 102 -60 41 11 42 12 26 41 -9 16
-8 19 2 13 38 -24 99 -23 264 5 270 45 380 54 670 54 289 0 433 -12 698 -59
78 -14 152 -27 163 -30 19 -4 22 -1 20 27 -2 43 20 47 28 4 4 -18 12 -38 19
-44 17 -13 106 -34 117 -27 14 9 87 205 104 282 80 359 -3 718 -233 1007 -176
221 -467 385 -755 425 -89 13 -224 12 -311 0z m-177 -181 c-13 -50 -17 -56
-43 -60 -11 -2 -31 -11 -44 -20 -13 -10 -28 -15 -33 -11 -5 3 -16 -4 -24 -16
-8 -12 -24 -21 -35 -21 -10 0 -19 -5 -19 -10 0 -6 -12 -16 -27 -23 -16 -6 -34
-20 -41 -29 -7 -10 -19 -18 -25 -18 -7 0 -18 -9 -25 -20 -7 -11 -18 -20 -26
-20 -7 0 -16 -9 -19 -21 -3 -11 -15 -23 -26 -26 -12 -3 -21 -11 -21 -18 0 -7
-11 -25 -25 -41 -13 -16 -30 -36 -37 -44 -7 -8 -19 -28 -25 -43 -7 -15 -17
-27 -23 -27 -5 0 -10 -9 -10 -20 0 -11 -8 -25 -19 -31 -10 -7 -16 -20 -14 -29
4 -14 -23 -50 -30 -39 -44 76 -47 97 -17 124 11 10 17 21 14 26 -2 5 4 17 15
28 10 10 22 28 26 40 3 12 15 26 26 31 10 6 19 17 19 25 0 8 11 22 25 31 14 9
25 23 25 30 0 8 11 20 25 26 14 6 25 17 25 24 0 8 14 20 30 29 17 9 30 20 30
26 0 5 10 14 23 19 12 6 42 26 67 44 25 19 55 35 68 35 12 1 22 5 22 11 0 10
39 34 46 28 2 -3 0 -19 -5 -36 -5 -18 -6 -32 -2 -32 5 0 11 14 15 32 7 36 23
58 42 58 10 0 12 -8 8 -30 -9 -42 3 -37 22 9 9 22 23 42 32 44 10 3 18 5 18 6
1 0 -3 -18 -8 -41z m62 12 c-12 -42 -19 -50 -41 -50 -10 0 -19 2 -19 4 0 15
33 62 47 68 10 3 19 7 20 7 1 1 -2 -12 -7 -29z m70 18 c0 -22 -22 -48 -40 -48
-24 0 -24 4 -5 34 15 22 45 32 45 14z m60 -8 c-6 -11 -20 -20 -32 -20 -20 0
-21 1 -3 20 10 11 24 20 32 20 11 0 11 -4 3 -20z m61 5 c0 -6 -10 -12 -23 -13
-19 -4 -20 -2 -9 12 15 17 33 18 32 1z m76 1 c-5 -14 -47 -21 -47 -8 0 11 16
19 38 19 7 0 11 -5 9 -11z m66 -7 c-7 -7 -19 -8 -30 -4 -16 7 -15 9 7 15 30 8
38 4 23 -11z m84 6 c-2 -5 -16 -12 -32 -13 -24 -3 -27 -1 -17 10 13 16 54 19
49 3z m68 9 c14 -6 14 -8 -1 -25 -9 -11 -23 -19 -30 -19 -22 0 -27 21 -8 35
23 17 19 16 39 9z m88 -26 c-25 -27 -61 -36 -77 -21 -9 10 62 52 85 50 16 -1
15 -5 -8 -29z m100 6 c9 -9 -60 -54 -83 -54 -32 0 -31 17 3 39 31 20 68 27 80
15z m37 -60 c-48 -28 -63 -29 -79 -10 -16 19 75 59 102 44 18 -9 15 -12 -23
-34z m95 -4 c4 -6 22 -17 41 -25 19 -8 34 -18 34 -23 0 -6 11 -13 25 -16 13
-3 29 -15 35 -26 6 -11 17 -20 26 -20 8 0 19 -11 25 -24 6 -13 20 -27 31 -29
11 -3 22 -15 25 -26 3 -11 13 -23 24 -26 10 -3 21 -16 25 -28 4 -12 17 -30 30
-40 13 -10 24 -25 24 -33 0 -8 5 -14 11 -14 5 0 16 -15 24 -34 8 -19 19 -37
25 -41 5 -3 10 -16 10 -27 0 -11 7 -26 15 -32 8 -6 16 -21 18 -34 2 -12 9 -28
15 -34 7 -7 12 -24 12 -39 0 -15 5 -31 10 -34 6 -3 10 -19 10 -35 0 -16 5 -32
10 -35 6 -3 10 -17 10 -30 l0 -24 -47 27 c-36 22 -48 34 -48 53 0 13 -6 28
-12 32 -7 4 -13 21 -13 36 0 16 -7 31 -15 35 -8 3 -15 16 -15 29 0 14 -7 30
-15 37 -8 7 -15 21 -15 31 0 11 -5 19 -10 19 -6 0 -16 12 -23 27 -6 15 -20 36
-29 45 -10 10 -18 25 -18 33 0 8 -7 15 -15 15 -8 0 -17 11 -21 24 -3 13 -15
26 -26 29 -11 3 -22 15 -25 26 -3 12 -11 21 -19 21 -7 0 -19 8 -26 18 -7 11
-23 24 -35 31 -13 6 -23 18 -23 26 0 8 -9 15 -19 15 -11 0 -26 9 -33 19 -8 10
-24 21 -37 23 -36 5 -36 24 0 39 18 7 27 15 20 17 -6 2 -23 -4 -37 -13 -26
-17 -74 -14 -74 5 0 26 101 53 115 30z m-479 -268 c30 -27 43 -48 48 -77 8
-49 23 -74 34 -59 4 5 43 23 86 38 80 28 130 30 174 7 9 -5 42 -14 72 -21 30
-6 62 -16 71 -23 22 -16 169 -232 169 -247 0 -7 -6 -10 -14 -7 -8 3 -68 20
-133 38 -65 17 -121 35 -126 39 -11 10 -265 -80 -271 -96 -5 -12 31 -14 229
-14 l235 0 0 -59 0 -59 -72 -4 c-90 -6 -1017 -6 -1110 0 l-68 4 0 59 0 59 240
0 c226 0 240 1 229 18 -14 21 -251 100 -271 90 -22 -12 -270 -79 -275 -75 -2
3 36 63 84 133 l88 129 65 13 c36 8 73 18 82 23 44 23 95 21 169 -6 41 -14 81
-33 90 -41 15 -13 17 -9 29 46 11 52 19 66 54 95 23 19 43 35 46 35 3 0 24
-17 46 -38z m-998 -254 c25 -49 27 -59 10 -76 -9 -9 -16 -6 -30 16 -25 38 -23
17 3 -24 17 -27 18 -37 8 -55 -11 -22 -11 -21 -31 10 -11 17 -22 31 -24 31
-11 0 -1 -22 22 -49 25 -30 29 -61 8 -68 -6 -2 -23 15 -39 37 -25 37 -27 43
-15 68 7 15 12 34 11 43 -1 9 5 22 14 29 8 7 15 21 15 30 0 23 10 50 19 50 3
0 16 -19 29 -42z m-60 -210 c35 -44 36 -46 22 -68 -7 -12 -13 -11 -37 10 -24
22 -23 20 5 -13 18 -21 32 -44 32 -52 0 -18 -23 -32 -28 -17 -2 7 -13 17 -25
24 -15 8 -10 -2 15 -30 23 -25 35 -48 32 -57 -8 -20 -17 -19 -39 5 -10 11 -23
20 -29 20 -6 0 9 -18 33 -39 31 -27 42 -43 38 -55 -6 -15 -11 -14 -47 10 -37
24 -47 42 -40 69 1 6 4 42 6 80 2 39 6 84 8 100 2 17 5 36 5 43 2 21 15 13 49
-30z m2010 18 c38 -20 64 -50 56 -69 -5 -13 -11 -12 -41 9 -20 13 -39 24 -43
24 -11 0 -21 30 -14 41 7 12 10 12 42 -5z m25 -81 c26 -18 37 -33 37 -50 0
-14 -3 -25 -6 -25 -17 0 -84 64 -84 81 0 25 8 24 53 -6z m-1425 -210 c1 -93 0
-180 -3 -192 -16 -65 -185 -70 -209 -8 -17 45 12 65 32 21 7 -17 21 -25 45
-28 49 -5 97 9 98 30 0 9 2 83 2 164 l2 148 -97 0 c-79 0 -98 3 -98 14 0 16
43 21 165 21 l60 0 3 -170z m260 153 c3 -16 -6 -18 -92 -18 l-94 0 -4 -80 -3
-80 98 0 c80 0 97 -3 97 -15 0 -18 -2 -18 -107 -15 l-83 2 0 -76 0 -75 92 -3
c79 -3 93 -6 96 -20 3 -16 -7 -18 -112 -18 l-116 0 0 204 c1 112 4 206 7 210
4 4 54 5 112 4 91 -3 106 -5 109 -20z m63 10 c0 -10 2 -10 6 0 3 8 26 12 64
12 50 0 63 -4 90 -28 30 -27 32 -33 32 -92 -1 -54 -5 -66 -27 -89 -24 -23 -34
-26 -96 -26 l-70 0 0 -92 c0 -86 -1 -93 -20 -93 -19 0 -20 7 -20 203 0 112 3
207 7 210 11 12 33 8 34 -5z m257 -167 c1 -108 7 -180 13 -188 7 -8 33 -13 64
-13 31 0 57 5 64 13 6 8 12 80 13 188 3 147 5 174 18 174 13 0 15 -28 18 -178
l2 -178 -29 -30 c-25 -25 -37 -29 -81 -29 -53 0 -86 12 -107 39 -9 11 -12 71
-13 199 0 169 1 183 18 180 15 -3 17 -21 20 -177z m329 14 l82 -160 1 158 c0
133 2 157 15 157 13 0 15 -29 15 -205 0 -159 -3 -205 -13 -205 -7 0 -49 73
-94 163 l-82 162 0 -162 c-1 -138 -3 -163 -16 -163 -13 0 -15 30 -15 211 0
164 3 210 13 207 6 -2 49 -76 94 -163z m528 122 c30 -26 36 -37 31 -55 -8 -23
-8 -23 -44 9 -43 38 -55 55 -47 69 10 16 19 12 60 -23z m-1 -71 c38 -35 41
-43 28 -64 -12 -17 -82 49 -82 77 0 29 13 26 54 -13z m-5 -71 c17 -20 31 -39
31 -43 0 -11 -19 -37 -22 -32 -2 3 -18 22 -36 42 -18 22 -29 44 -26 53 9 22
19 19 53 -20z m-2056 -4 c26 -16 37 -30 37 -48 0 -27 -4 -26 -57 14 -19 13
-33 33 -33 44 0 23 0 23 53 -10z m2039 -58 c30 -34 39 -55 28 -73 -11 -18 -69
47 -70 78 0 29 11 28 42 -5z m-1995 -41 c6 -7 9 -20 7 -27 -4 -10 -16 -7 -50
12 -33 18 -44 31 -44 49 l0 23 38 -21 c20 -12 42 -28 49 -36z m2009 -97 c-9
-23 -19 -18 -48 28 -21 32 -24 46 -16 60 9 18 13 15 40 -27 17 -25 28 -53 24
-61z m-1986 14 c0 -16 -4 -19 -22 -14 -37 11 -73 40 -76 62 -3 20 -2 20 47 -4
37 -17 51 -30 51 -44z m1945 -23 c23 -39 25 -48 14 -68 -9 -18 -13 -19 -17 -8
-3 8 -13 27 -23 42 -19 26 -25 59 -12 71 10 11 10 10 38 -37z m-1925 -46 c0
-17 -3 -18 -32 -8 -42 14 -68 36 -68 58 0 15 6 14 50 -7 34 -16 50 -30 50 -43z
m1920 -65 c0 -13 -18 -41 -22 -35 -33 51 -46 99 -31 114 7 7 53 -61 53 -79z
m-1932 33 c30 -8 51 -32 40 -43 -8 -9 -83 17 -95 33 -18 23 -16 35 5 27 9 -4
32 -11 50 -17z m1885 -58 c14 -32 15 -45 6 -62 -11 -20 -13 -18 -31 25 -19 43
-19 77 -1 77 5 0 16 -18 26 -40z m-1861 -7 c28 -5 55 -29 45 -39 -9 -9 -77 8
-92 23 -21 20 -19 37 3 28 9 -3 29 -9 44 -12z"/>
<path d="M1577 2887 c-4 -10 -7 -26 -7 -35 1 -15 2 -15 11 1 6 10 9 25 7 35
-3 16 -4 15 -11 -1z"/>
<path d="M1517 2846 c-5 -15 -6 -31 -3 -34 8 -8 18 25 14 45 -3 13 -6 10 -11
-11z"/>
<path d="M1462 2795 c0 -16 2 -22 5 -12 2 9 2 23 0 30 -3 6 -5 -1 -5 -18z"/>
<path d="M1402 2750 c0 -14 2 -19 5 -12 2 6 2 18 0 25 -3 6 -5 1 -5 -13z"/>
<path d="M1352 2695 c0 -16 2 -22 5 -12 2 9 2 23 0 30 -3 6 -5 -1 -5 -18z"/>
<path d="M1301 2653 c-1 -12 4 -25 9 -28 12 -7 12 2 0 30 -8 19 -9 19 -9 -2z"/>
<path d="M1262 2580 c0 -14 2 -19 5 -12 2 6 2 18 0 25 -3 6 -5 1 -5 -13z"/>
<path d="M1210 2543 c0 -5 7 -18 15 -29 13 -18 14 -18 8 4 -5 22 -23 41 -23
25z"/>
<path d="M1180 2468 c0 -9 5 -20 10 -23 13 -8 13 5 0 25 -8 13 -10 13 -10 -2z"/>
<path d="M2660 2840 c-13 -9 -13 -10 0 -10 8 0 22 5 30 10 13 9 13 10 0 10 -8
0 -22 -5 -30 -10z"/>
<path d="M2725 2800 c-19 -8 -19 -9 3 -9 12 -1 22 4 22 9 0 6 -1 10 -2 9 -2 0
-12 -4 -23 -9z"/>
<path d="M2770 2750 c-13 -9 -13 -10 0 -10 8 0 22 5 30 10 13 9 13 10 0 10 -8
0 -22 -5 -30 -10z"/>
<path d="M2826 2701 c-3 -4 6 -6 19 -3 14 2 25 6 25 8 0 8 -39 4 -44 -5z"/>
<path d="M2873 2643 c9 -2 23 -2 30 0 6 3 -1 5 -18 5 -16 0 -22 -2 -12 -5z"/>
<path d="M2918 2593 c6 -2 18 -2 25 0 6 3 1 5 -13 5 -14 0 -19 -2 -12 -5z"/>
<path d="M2940 2536 c0 -2 13 -6 29 -8 17 -2 28 -1 25 4 -5 8 -54 12 -54 4z"/>
<path d="M2990 2470 c8 -5 24 -10 35 -10 17 0 17 2 5 10 -8 5 -24 10 -35 10
-17 0 -17 -2 -5 -10z"/>
<path d="M3020 2406 c0 -2 11 -6 25 -8 13 -3 22 -1 19 3 -5 9 -44 13 -44 5z"/>
<path d="M3040 2346 c0 -2 15 -9 33 -15 29 -10 30 -9 13 4 -18 14 -46 20 -46
11z"/>
<path d="M3071 2276 c2 -2 15 -9 29 -16 23 -12 24 -12 11 3 -7 10 -20 17 -29
17 -8 0 -13 -2 -11 -4z"/>
<path d="M2071 2623 c-20 -20 -33 -47 -44 -90 -16 -67 -14 -72 14 -47 16 14
18 14 29 -5 6 -12 15 -19 21 -16 14 10 11 20 -16 47 -22 22 -23 27 -10 38 14
11 13 14 -2 26 -14 10 -15 15 -6 25 9 9 14 6 25 -10 17 -27 33 -27 52 1 12 16
19 19 27 11 8 -8 7 -14 -4 -24 -10 -10 -11 -18 -4 -30 7 -12 5 -21 -12 -38
-11 -11 -21 -25 -21 -30 0 -12 20 -25 20 -14 0 4 4 15 10 23 7 12 12 11 31 -5
l22 -20 -7 35 c-4 19 -10 50 -13 68 -5 30 -52 82 -74 82 -5 0 -22 -12 -38 -27z"/>
<path d="M2100 2533 c0 -13 5 -23 10 -23 13 0 13 11 0 30 -8 12 -10 11 -10 -7z"/>
<path d="M2056 2235 c-3 -8 -1 -15 4 -15 6 0 10 7 10 15 0 8 -2 15 -4 15 -2 0
-6 -7 -10 -15z"/>
<path d="M1612 2160 c0 -19 2 -27 5 -17 2 9 2 25 0 35 -3 9 -5 1 -5 -18z"/>
<path d="M1640 2174 c-11 -12 -10 -18 5 -32 18 -16 18 -16 6 1 -11 14 -11 20
-1 32 7 8 10 15 7 15 -2 0 -10 -7 -17 -16z"/>
<path d="M1681 2159 c1 -27 3 -29 6 -10 l5 25 19 -25 c10 -13 19 -19 19 -13 0
6 -11 21 -25 34 l-25 23 1 -34z"/>
<path d="M1779 2183 c18 -4 22 -10 18 -29 -2 -13 0 -24 4 -24 5 0 9 14 9 30 0
26 -3 30 -27 29 -26 -2 -26 -2 -4 -6z"/>
<path d="M1956 2180 c7 -8 14 -24 16 -35 3 -16 5 -15 10 8 3 15 3 25 0 22 -3
-2 -12 1 -21 8 -14 10 -14 10 -5 -3z"/>
<path d="M2020 2160 c0 -16 4 -30 9 -30 4 0 6 11 4 24 -4 19 0 25 18 29 22 4
22 4 -3 6 -25 1 -28 -3 -28 -29z"/>
<path d="M2090 2160 c0 -16 4 -30 8 -30 5 0 7 14 4 30 -2 17 -6 30 -8 30 -2 0
-4 -13 -4 -30z"/>
<path d="M2188 2183 c27 -6 29 -20 2 -27 -17 -5 -17 -6 3 -3 31 3 28 32 -3 34
-22 1 -22 1 -2 -4z"/>
<path d="M2271 2180 c0 -8 11 -23 24 -33 23 -17 25 -17 25 -1 0 10 -3 15 -6
11 -4 -3 -15 4 -25 16 -13 16 -18 18 -18 7z"/>
<path d="M2340 2160 c0 -16 4 -30 9 -30 5 0 8 11 5 24 -3 19 1 26 18 29 20 4
19 4 -4 6 -25 1 -28 -3 -28 -29z"/>
<path d="M2412 2160 c1 -16 5 -30 9 -30 4 0 6 11 3 24 -3 19 1 26 18 29 20 4
20 4 -4 6 -23 1 -27 -3 -26 -29z"/>
<path d="M2487 2183 c-10 -9 -9 -41 2 -47 4 -3 6 5 4 18 -4 19 0 25 18 29 21
4 22 4 3 6 -11 0 -24 -2 -27 -6z"/>
<path d="M2568 2183 c6 -2 18 -2 25 0 6 3 1 5 -13 5 -14 0 -19 -2 -12 -5z"/>
<path d="M2030 1950 c1 -68 3 -90 11 -78 7 14 19 16 57 12 67 -8 87 9 87 75 0
27 -6 56 -13 63 -7 7 -42 15 -77 18 l-65 5 0 -95z"/>
<path d="M1260 3113 c-39 -21 -56 -24 -122 -21 -49 2 -74 0 -68 -6 16 -16 122
-16 171 0 26 8 55 24 64 34 23 25 11 23 -45 -7z"/>
<path d="M3402 3050 c0 -14 2 -19 5 -12 2 6 2 18 0 25 -3 6 -5 1 -5 -13z"/>
<path d="M3401 3004 c-3 -62 -94 -106 -182 -87 -27 5 -49 6 -49 2 0 -12 22
-16 90 -18 50 -1 73 3 98 19 34 21 56 62 49 89 -3 11 -5 9 -6 -5z"/>
<path d="M1110 2982 c-54 -53 -154 -81 -230 -63 -40 9 -43 8 -26 -5 34 -25
139 -18 201 13 57 27 90 55 84 71 -2 5 -15 -2 -29 -16z"/>
<path d="M750 2875 c0 -11 -3 -30 -6 -42 -4 -15 -2 -23 7 -23 7 0 10 3 6 6 -3
3 -1 18 4 32 7 17 6 29 -1 36 -7 7 -10 4 -10 -9z"/>
<path d="M3561 2849 c-1 -49 -23 -113 -42 -125 -42 -26 -146 -18 -206 15 -13
6 -23 8 -23 4 1 -16 97 -50 147 -52 54 -2 89 10 110 38 14 19 27 107 20 142
-2 14 -5 4 -6 -22z"/>
<path d="M941 2789 c-33 -45 -121 -82 -193 -82 -37 0 -55 -4 -49 -10 15 -15
132 -3 175 18 58 28 130 105 98 105 -5 0 -19 -14 -31 -31z"/>
<path d="M621 2674 c0 -11 3 -14 6 -6 3 7 2 16 -1 19 -3 4 -6 -2 -5 -13z"/>
<path d="M3691 2664 c0 -11 3 -14 6 -6 3 7 2 16 -1 19 -3 4 -6 -2 -5 -13z"/>
<path d="M3680 2607 c0 -46 -20 -96 -48 -121 -32 -28 -119 -17 -183 23 -27 17
-49 26 -49 20 0 -5 11 -14 24 -19 13 -5 27 -14 31 -20 11 -17 54 -31 113 -37
48 -5 56 -3 81 21 34 33 59 123 43 152 -10 16 -11 13 -12 -19z"/>
<path d="M622 2600 c0 -14 2 -19 5 -12 2 6 2 18 0 25 -3 6 -5 1 -5 -13z"/>
<path d="M813 2576 c-43 -60 -111 -99 -185 -104 -32 -3 -58 -8 -58 -13 0 -16
98 -9 144 11 50 21 112 79 127 118 15 39 5 35 -28 -12z"/>
<path d="M3776 2395 c-11 -75 -30 -122 -63 -157 -33 -35 -62 -35 -130 -3 -29
13 -53 20 -53 16 0 -5 8 -12 18 -15 9 -4 33 -16 52 -26 19 -11 49 -20 67 -20
66 0 130 120 121 227 -3 34 -4 32 -12 -22z"/>
<path d="M757 2404 c-3 -3 -17 -30 -32 -59 -27 -55 -70 -96 -130 -121 -40 -16
-91 -19 -100 -4 -3 6 -11 10 -17 10 -6 0 -3 -9 8 -21 43 -47 173 2 235 89 34
48 63 133 36 106z"/>
<path d="M536 2381 c-11 -17 -2 -61 12 -61 9 0 10 5 4 16 -5 9 -7 25 -5 35 6
20 -2 26 -11 10z"/>
<path d="M3825 2163 c-14 -82 -18 -99 -36 -134 -21 -41 -73 -89 -97 -89 -22 0
-102 40 -102 51 0 5 -5 9 -10 9 -19 0 14 -38 51 -59 48 -27 75 -26 115 4 54
41 83 102 90 184 6 75 -1 97 -11 34z"/>
<path d="M690 2140 c0 -62 -70 -154 -142 -186 -38 -17 -42 -17 -71 -1 l-30 18
15 -23 c37 -54 143 -12 208 83 33 48 52 129 31 129 -6 0 -11 -9 -11 -20z"/>
<path d="M491 2103 c0 -4 4 -17 9 -28 8 -19 9 -19 9 2 1 12 -3 25 -9 28 -5 3
-10 3 -9 -2z"/>
<path d="M3836 1928 c-2 -7 -8 -39 -14 -71 -14 -72 -63 -145 -114 -170 -35
-17 -39 -17 -73 -1 -20 9 -42 25 -49 36 -8 11 -16 16 -19 11 -16 -26 80 -87
123 -78 76 17 152 129 155 228 2 54 -2 72 -9 45z"/>
<path d="M687 1923 c-2 -5 -5 -25 -6 -47 -3 -69 -62 -160 -124 -192 -24 -13
-31 -13 -62 2 -19 9 -39 22 -46 30 -13 16 -29 18 -29 4 0 -5 7 -10 15 -10 8 0
15 -6 15 -14 0 -7 8 -16 18 -20 9 -3 24 -11 33 -17 38 -28 131 34 173 117 20
38 26 63 25 102 -2 51 -4 59 -12 45z"/>
<path d="M3397 1794 c-19 -113 -54 -226 -103 -333 -39 -85 -38 -81 -19 -81 31
0 106 217 130 379 21 141 14 169 -8 35z"/>
<path d="M411 1754 c0 -11 3 -14 6 -6 3 7 2 16 -1 19 -3 4 -6 -2 -5 -13z"/>
<path d="M718 1634 c3 -47 1 -54 -15 -54 -14 0 -15 -2 -4 -9 8 -5 11 -16 6
-30 -5 -16 -9 -18 -19 -8 -8 6 -11 18 -9 25 4 8 0 10 -11 6 -11 -4 -15 -2 -11
8 4 9 0 15 -9 15 -10 0 -20 -18 -27 -49 -9 -35 -18 -48 -31 -48 -10 0 -18 7
-18 17 0 9 -3 13 -7 10 -3 -4 -12 1 -20 11 -8 9 -12 12 -9 5 4 -6 2 -14 -3
-17 -10 -7 -21 16 -21 44 0 9 -7 24 -16 31 -15 12 -16 11 -9 -11 6 -20 5 -23
-6 -12 -17 16 -29 15 -29 -3 0 -8 -4 -15 -9 -15 -5 0 -8 -11 -8 -25 0 -14 4
-22 10 -18 5 3 8 0 5 -7 -10 -30 98 -110 149 -110 45 0 108 76 134 160 12 41
18 77 13 88 -4 9 -6 22 -5 28 1 7 -4 14 -11 17 -10 3 -12 -9 -10 -49z m-71
-190 c-15 -13 -33 -24 -40 -24 -7 1 0 7 14 15 15 8 30 22 33 31 4 9 10 14 14
10 4 -4 -6 -19 -21 -32z"/>
<path d="M3793 1620 c-5 -14 -13 -32 -16 -40 -3 -9 -6 -10 -6 -2 -1 6 -8 12
-17 12 -8 0 -12 5 -8 11 4 7 -2 7 -17 -1 l-23 -13 23 -18 c13 -11 27 -16 32
-13 15 9 10 -13 -6 -26 -8 -7 -15 -18 -15 -24 0 -7 -11 -23 -26 -37 -17 -16
-23 -18 -19 -7 4 9 13 19 20 22 8 3 11 13 8 26 -3 12 -1 20 5 18 22 -7 13 18
-12 30 -24 12 -28 11 -45 -10 -14 -16 -16 -25 -8 -30 8 -5 6 -8 -5 -8 -9 0
-18 -5 -20 -12 -2 -6 -11 -9 -20 -5 -12 4 -15 16 -13 41 2 20 -1 36 -6 36 -5
0 -8 5 -6 12 1 7 -16 11 -53 11 -47 -1 -50 0 -20 6 l35 7 -36 5 c-42 5 -44 -1
-23 -74 7 -26 14 -51 15 -55 7 -30 22 -53 49 -72 71 -51 188 21 236 145 9 24
14 53 12 66 l-4 24 -11 -25z m-208 -40 c-3 -5 -2 -18 3 -27 7 -13 6 -22 -4
-31 -12 -11 -13 -9 -11 10 1 14 -3 22 -10 21 -19 -4 -16 14 5 26 22 13 25 13
17 1z m-45 -74 c0 -3 -4 -8 -10 -11 -5 -3 -10 -1 -10 4 0 6 5 11 10 11 6 0 10
-2 10 -4z m135 -66 c-3 -5 -12 -10 -18 -10 -7 0 -6 4 3 10 19 12 23 12 15 0z
m-85 -10 c0 -5 -2 -10 -4 -10 -3 0 -8 5 -11 10 -3 6 -1 10 4 10 6 0 11 -4 11
-10z"/>
<path d="M426 1612 c-2 -4 -1 -14 5 -22 7 -12 9 -10 9 8 0 23 -5 28 -14 14z"/>
<path d="M758 1428 c-29 -38 -53 -96 -45 -104 3 -3 29 2 58 11 l51 17 -5 41
c-3 22 -12 46 -20 54 -13 13 -18 11 -39 -19z"/>
<path d="M3411 1422 c-21 -85 -23 -78 37 -101 31 -11 60 -17 65 -12 9 9 -7 57
-28 78 -8 8 -13 19 -10 24 4 5 -1 9 -10 9 -9 0 -14 4 -11 8 2 4 -4 13 -14 20
-17 11 -20 8 -29 -26z"/>
<path d="M3705 1350 c-11 -4 -38 -13 -60 -20 -22 -7 -50 -21 -63 -31 l-23 -17
53 -25 53 -25 27 31 c24 26 46 83 36 91 -1 2 -12 0 -23 -4z"/>
<path d="M499 1338 c-1 -7 0 -17 1 -23 1 -5 4 -21 6 -34 5 -41 18 -44 78 -17
31 14 56 27 56 29 0 7 -84 45 -112 51 -19 4 -28 2 -29 -6z"/>
<path d="M2240 1270 c0 -15 7 -20 25 -20 18 0 25 5 25 20 0 15 -7 20 -25 20
-18 0 -25 -5 -25 -20z"/>
<path d="M1671 1261 c-21 -6 -28 -20 -52 -106 -35 -122 -35 -127 -7 -123 14 2
24 12 28 28 5 20 14 26 50 32 41 7 47 6 65 -17 21 -25 55 -34 55 -14 0 12 -82
166 -102 190 -9 11 -21 14 -37 10z m34 -91 c20 -39 20 -40 -15 -40 -28 0 -30
2 -24 28 13 51 18 53 39 12z"/>
<path d="M1900 1221 c-8 -6 -27 -7 -42 -4 -32 6 -32 5 -22 -96 6 -54 9 -61 28
-61 19 0 21 5 18 40 -6 58 4 90 29 90 25 0 36 -31 38 -102 1 -21 5 -25 21 -21
17 5 20 14 20 64 0 46 -5 64 -20 79 -21 21 -46 25 -70 11z"/>
<path d="M2037 1223 c-2 -5 -2 -41 1 -80 4 -63 7 -73 23 -73 15 0 19 9 21 56
6 104 68 96 68 -8 0 -41 3 -48 20 -48 18 0 20 7 20 68 0 40 -5 73 -12 80 -16
16 -70 16 -86 0 -9 -9 -12 -9 -12 0 0 13 -36 17 -43 5z"/>
<path d="M2240 1151 c0 -74 2 -81 20 -81 21 0 20 -5 24 133 1 15 -6 23 -21 25
-22 3 -23 1 -23 -77z"/>
<path d="M2320 1219 c0 -6 12 -44 26 -85 35 -98 51 -99 101 -1 21 39 39 75 41
80 2 4 -7 7 -21 7 -20 0 -29 -10 -47 -52 l-23 -53 -17 49 c-10 32 -24 52 -38
57 -14 5 -22 4 -22 -2z"/>
<path d="M535 1187 c-96 -40 -303 -143 -371 -186 -33 -20 -44 -32 -34 -35 8
-3 116 -30 240 -61 124 -30 239 -59 255 -65 24 -8 27 -7 14 3 -13 10 -17 39
-19 167 -3 117 -5 220 -5 210 0 0 -36 -15 -80 -33z m85 -317 c0 -5 -7 -10 -16
-10 -8 0 -12 5 -9 10 3 6 10 10 16 10 5 0 9 -4 9 -10z"/>
<path d="M3565 1030 l0 -186 55 13 c219 51 435 110 434 118 -3 21 -369 207
-464 235 l-25 7 0 -187z"/>
<path d="M1303 1202 c-8 -5 -5 -34 10 -109 20 -94 24 -103 44 -103 13 0 23 2
23 5 0 2 -5 27 -11 55 -8 39 -8 54 1 65 29 35 52 10 65 -67 5 -30 10 -38 27
-38 19 0 20 4 14 56 -11 93 -38 119 -95 89 l-30 -15 -7 35 c-6 34 -18 42 -41
27z"/>
<path d="M2525 1185 c-29 -28 -33 -79 -10 -112 21 -31 78 -40 110 -19 35 23
22 39 -24 31 -28 -5 -41 -2 -51 9 -15 19 -12 19 58 16 50 -2 52 -1 52 25 0 36
-41 75 -80 75 -19 0 -40 -9 -55 -25z m81 -22 c17 -17 16 -18 -15 -21 -40 -4
-48 2 -31 23 16 19 25 19 46 -2z"/>
<path d="M2706 1182 c-2 -4 -8 -40 -11 -80 -7 -68 -7 -72 13 -72 17 0 22 8 28
45 7 49 26 77 48 69 7 -3 19 2 26 10 10 13 9 17 -4 22 -9 3 -25 4 -36 1 -11
-3 -23 -1 -26 4 -6 11 -31 12 -38 1z"/>
<path d="M1208 1164 c-24 -28 -33 -70 -15 -77 8 -3 18 -23 22 -44 11 -61 22
-75 58 -71 37 3 53 38 18 38 -15 0 -23 10 -30 38 -14 48 -14 52 4 52 8 0 15 7
15 15 0 8 -8 15 -18 15 -10 0 -22 11 -28 26 -9 26 -10 26 -26 8z"/>
<path d="M2842 1154 c-34 -24 -25 -54 26 -82 23 -13 42 -28 42 -33 0 -15 -50
-10 -56 6 -8 19 -44 20 -44 1 0 -40 102 -62 134 -30 30 30 19 52 -42 83 -23
12 -40 26 -37 31 9 15 31 12 45 -5 7 -8 23 -15 37 -15 20 0 22 3 13 20 -6 10
-27 24 -48 30 -47 13 -43 13 -70 -6z"/>
<path d="M1030 1130 c-25 -25 -26 -84 -4 -140 24 -60 74 -78 122 -44 23 16 29
58 16 123 -14 71 -90 105 -134 61z m84 -67 c19 -55 20 -75 5 -90 -20 -20 -39
-2 -55 54 -18 61 -14 83 15 83 14 0 23 -13 35 -47z"/>
<path d="M3028 1120 c-10 -6 -18 -15 -18 -19 0 -12 39 -21 45 -11 8 13 45 -1
45 -16 0 -10 -13 -14 -44 -14 -45 0 -76 -18 -76 -45 0 -24 30 -45 65 -45 19 0
37 -4 40 -10 3 -5 15 -10 26 -10 11 0 18 4 15 8 -3 5 2 35 10 67 15 55 14 59
-3 77 -23 23 -81 32 -105 18z m57 -90 c8 -14 -13 -40 -32 -40 -7 0 -16 7 -20
16 -10 26 38 47 52 24z"/>
<path d="M865 1088 c-27 -14 -45 -38 -45 -60 0 -26 33 -23 45 5 12 28 52 35
62 11 4 -10 -5 -36 -21 -66 -32 -56 -48 -106 -37 -112 4 -3 38 5 74 16 52 17
67 26 67 41 0 20 1 20 -69 1 l-24 -7 27 45 c14 25 26 58 26 75 0 53 -54 79
-105 51z"/>
<path d="M3186 1025 c-21 -83 -20 -95 4 -95 14 0 22 11 31 43 15 55 26 68 55
61 16 -4 24 -2 24 7 1 11 3 10 10 -1 4 -9 10 -47 11 -85 3 -71 1 -75 -46 -90
-20 -6 -20 -7 -1 -21 11 -8 28 -14 38 -14 24 0 170 172 155 182 -23 15 -37 8
-65 -32 -15 -21 -30 -39 -34 -40 -5 0 -8 25 -8 55 l0 54 -42 12 c-24 7 -50 11
-60 10 -9 -1 -19 3 -23 9 -16 26 -34 6 -49 -55z"/>
<path d="M1905 804 c-84 -5 -318 -35 -328 -41 -13 -8 150 -59 268 -85 141 -30
378 -31 520 0 121 26 276 78 255 85 -70 25 -539 52 -715 41z"/>
<path d="M1405 731 c-32 -7 -33 -11 -19 -78 3 -18 11 -33 16 -33 5 0 7 -4 4
-8 -3 -5 7 -21 21 -36 14 -15 22 -30 19 -34 -4 -3 -26 -5 -50 -3 -54 3 -115
-14 -151 -43 l-27 -21 41 -23 c120 -68 296 -16 296 87 0 53 -25 121 -57 156
-15 17 -28 33 -28 38 0 8 -22 8 -65 -2z"/>
<path d="M2732 718 c-51 -64 -82 -196 -57 -239 31 -51 151 -74 236 -44 60 22
104 65 66 65 -8 0 -29 8 -48 17 -19 9 -68 20 -109 23 -52 4 -69 9 -56 15 22
10 66 100 66 136 0 19 -6 28 -22 33 -36 9 -65 7 -76 -6z"/>
<path d="M1268 696 c-21 -7 -40 -11 -43 -8 -3 3 -5 0 -5 -6 0 -7 -9 -12 -20
-12 -30 0 -180 -52 -180 -63 0 -5 9 -11 20 -14 11 -3 20 -9 20 -13 0 -14 110
-31 157 -24 68 10 103 47 103 108 0 51 0 51 -52 32z"/>
<path d="M2888 665 c-2 -19 0 -35 5 -35 5 0 7 -6 5 -12 -6 -18 29 -43 80 -58
34 -11 53 -11 99 0 68 15 112 39 91 51 -15 8 -259 89 -269 89 -4 0 -9 -16 -11
-35z"/>
<path d="M2570 664 c-44 -19 -106 -79 -129 -124 -10 -19 -21 -56 -24 -81 -6
-41 -3 -49 21 -72 52 -48 147 -74 211 -57 38 10 97 49 75 50 -5 0 -19 9 -31
19 -25 23 -103 51 -143 51 -41 0 -44 13 -9 46 38 36 67 90 75 143 7 45 4 47
-46 25z"/>
<path d="M1600 655 c0 -8 -6 -15 -12 -15 -9 -1 -8 -4 2 -13 8 -7 16 -20 16
-29 3 -29 55 -110 76 -116 27 -7 16 -26 -18 -30 -61 -7 -104 -24 -144 -57
l-41 -34 33 -17 c70 -37 191 -16 252 44 33 32 37 40 35 84 -2 26 -6 48 -11 48
-4 0 -8 7 -8 15 0 8 -8 23 -17 33 -10 10 -23 27 -29 38 -6 10 -15 19 -20 19
-5 0 -23 10 -41 23 -36 25 -73 29 -73 7z"/>
<path d="M1839 399 c-19 -12 2 -31 28 -26 14 3 42 0 62 -6 20 -6 38 -11 41
-12 45 -12 90 -30 88 -36 -2 -4 -74 -55 -161 -113 -86 -58 -167 -115 -180
-126 -12 -12 -34 -24 -50 -27 -15 -3 -30 -10 -34 -16 -3 -5 -1 -7 5 -3 6 3 14
2 17 -4 9 -15 124 -5 171 15 24 10 82 60 151 130 62 63 117 115 123 115 16 0
42 -23 175 -160 75 -78 114 -99 190 -106 86 -7 143 16 75 31 -16 4 -30 10 -30
15 0 5 -8 11 -18 14 -10 4 -27 14 -38 24 -10 10 -40 32 -66 50 -25 18 -53 39
-62 47 -8 9 -19 16 -23 16 -4 1 -47 25 -95 54 -87 55 -127 74 -208 102 -56 19
-146 32 -161 22z"/>
<path d="M2305 400 c-27 -4 -77 -17 -110 -29 -32 -11 -61 -21 -62 -21 -2 0 -3
-4 -3 -10 0 -15 28 -12 94 10 33 11 72 20 88 20 33 0 68 16 68 30 0 11 -2 11
-75 0z"/>
</g>
</svg>
